<svg width="33" height="33" viewBox="0 0 33 33" fill="none" xmlns="http://www.w3.org/2000/svg">
<path d="M2.75 8.25C2.75 6.73122 3.98122 5.5 5.5 5.5H6.875V15.3641C5.2973 15.7369 3.88116 16.5276 2.75 17.6132V8.25ZM22 11.6875H16.5C16.1204 11.6875 15.8125 11.9953 15.8125 12.375V13.75C15.8125 14.1296 16.1204 14.4375 16.5 14.4375H22C22.3796 14.4375 22.6875 14.1296 22.6875 13.75V12.375C22.6875 11.9953 22.3796 11.6875 22 11.6875ZM17.19 27.5H27.5C29.0188 27.5 30.25 26.2688 30.25 24.75V8.25C30.25 6.73122 29.0188 5.5 27.5 5.5H8.9375V15.125C13.8736 15.125 17.875 19.1264 17.875 24.0625C17.875 25.2806 17.6313 26.4418 17.19 27.5ZM13.75 12.375C13.75 10.8562 14.9812 9.625 16.5 9.625H22C23.5188 9.625 24.75 10.8562 24.75 12.375V13.75C24.75 15.2688 23.5188 16.5 22 16.5H16.5C14.9812 16.5 13.75 15.2688 13.75 13.75V12.375ZM8.9375 16.5C13.1142 16.5 16.5 19.8858 16.5 24.0625C16.5 28.2392 13.1142 31.625 8.9375 31.625C4.76084 31.625 1.375 28.2392 1.375 24.0625C1.375 19.8858 4.76084 16.5 8.9375 16.5ZM9.62653 28.1923L9.62589 24.75H13.0578C13.4371 24.75 13.7446 24.4423 13.7446 24.0625C13.7446 23.6829 13.4371 23.375 13.0578 23.375H9.62563L9.625 19.9365C9.625 19.5568 9.31719 19.249 8.9375 19.249C8.55781 19.249 8.25 19.5568 8.25 19.9365L8.25063 23.375H4.80645C4.42713 23.375 4.11962 23.6829 4.11962 24.0625C4.11962 24.4423 4.42713 24.75 4.80645 24.75H8.25089L8.25153 28.1923C8.25153 28.5721 8.55933 28.8798 8.93903 28.8798C9.31872 28.8798 9.62653 28.5721 9.62653 28.1923Z" fill="#212121"/>
</svg>
