<svg width="23" height="23" viewBox="0 0 23 23" fill="none" xmlns="http://www.w3.org/2000/svg">
<path d="M11.5002 7.66663V1.91663H5.75016C4.69162 1.91663 3.8335 2.77475 3.8335 3.83329V11.0191C4.57102 10.7114 5.38034 10.5416 6.22933 10.5416C7.47634 10.5416 8.63777 10.9081 9.61186 11.5392C9.69859 11.2397 9.97488 11.0208 10.3022 11.0208H15.5731C15.97 11.0208 16.2918 11.3426 16.2918 11.7395C16.2918 12.1365 15.97 12.4583 15.5731 12.4583H10.7243C11.1329 12.8841 11.4816 13.3678 11.7568 13.8958H15.5731C15.97 13.8958 16.2918 14.2176 16.2918 14.6145C16.2918 15.0115 15.97 15.3333 15.5731 15.3333H12.2918C12.4008 15.7947 12.4585 16.276 12.4585 16.7708H15.5731C15.97 16.7708 16.2918 17.0926 16.2918 17.4895C16.2918 17.8865 15.97 18.2083 15.5731 18.2083H12.2918C12.032 19.3079 11.4809 20.2949 10.7243 21.0833H17.2502C18.3087 21.0833 19.1668 20.2252 19.1668 19.1666V9.58329H13.4168C12.3583 9.58329 11.5002 8.72517 11.5002 7.66663ZM12.9377 7.66663V2.39579L18.6877 8.14579H13.4168C13.1522 8.14579 12.9377 7.93126 12.9377 7.66663ZM6.22933 22.0416C3.31833 22.0416 0.958496 19.6818 0.958496 16.7708C0.958496 13.8598 3.31833 11.5 6.22933 11.5C9.14033 11.5 11.5002 13.8598 11.5002 16.7708C11.5002 19.6818 9.14033 22.0416 6.22933 22.0416ZM9.10433 17.25C9.36896 17.25 9.5835 17.0354 9.5835 16.7708C9.5835 16.5062 9.36896 16.2916 9.10433 16.2916H4.51114L6.08898 14.7138C6.27612 14.5267 6.27612 14.2233 6.08898 14.0361C5.90186 13.849 5.59847 13.849 5.41134 14.0361L3.01551 16.4319C2.82838 16.6191 2.82838 16.9225 3.01551 17.1097L5.41134 19.5055C5.59847 19.6926 5.90186 19.6926 6.08898 19.5055C6.27612 19.3183 6.27612 19.0149 6.08898 18.8278L4.51114 17.25H9.10433Z" fill="black"/>
</svg>
