<svg width="13" height="21" viewBox="0 0 13 21" fill="none" xmlns="http://www.w3.org/2000/svg">
<g clip-path="url(#clip0_12_3504)">
<path d="M-0.000349692 2.625C-0.000349692 1.89902 0.580588 1.3125 1.29965 1.3125H11.6996C12.4187 1.3125 12.9997 1.89902 12.9997 2.625C12.9997 3.35098 12.4187 3.9375 11.6996 3.9375H9.41652C9.80653 4.52813 10.095 5.19258 10.2575 5.90625H11.6996C12.4187 5.90625 12.9997 6.49277 12.9997 7.21875C12.9997 7.94473 12.4187 8.53125 11.6996 8.53125H10.2534C9.71715 10.9225 7.73871 12.7641 5.28903 13.0799L11.1553 17.3086C11.7403 17.7311 11.8743 18.5514 11.4559 19.1379C11.0375 19.7244 10.225 19.8639 9.64402 19.4414L0.544025 12.8789C0.0849628 12.5508 -0.110037 11.9561 0.0605878 11.4105C0.231213 10.865 0.734963 10.5 1.29965 10.5H4.54965C5.88215 10.5 7.02778 9.69199 7.52746 8.53125H1.29965C0.580588 8.53125 -0.000349692 7.94473 -0.000349692 7.21875C-0.000349692 6.49277 0.580588 5.90625 1.29965 5.90625H7.52746C7.02778 4.74551 5.88215 3.9375 4.54965 3.9375H1.29965C0.580588 3.9375 -0.000349692 3.35098 -0.000349692 2.625Z" fill="black"/>
</g>
<defs>
<clipPath id="clip0_12_3504">
<rect width="13" height="21" fill="white"/>
</clipPath>
</defs>
</svg>
