<svg width="33" height="33" viewBox="0 0 33 33" fill="none" xmlns="http://www.w3.org/2000/svg">
<path d="M19.7391 3.56859C19.8612 3.41359 20.0885 3.39298 20.2366 3.52349L21.5029 4.64025L17.5152 9.625H20.1564L23.0516 6.00596L25.3234 8.00922C25.4631 8.13244 25.4793 8.3445 25.3598 8.48746L24.4094 9.625H27.0827C27.7619 8.63353 27.607 7.27304 26.6875 6.46228L21.6007 1.97655C20.5646 1.06294 18.9738 1.20719 18.1191 2.29225L12.3423 9.625H14.968L19.7391 3.56859ZM7.21875 8.9375C6.64921 8.9375 6.1875 9.39921 6.1875 9.96875C6.1875 10.5383 6.64921 11 7.21875 11H25.0938C27.5617 11 29.5625 13.0007 29.5625 15.4688V24.4062C29.5625 26.8742 27.5617 28.875 25.0938 28.875H8.59375C6.12572 28.875 4.125 26.8742 4.125 24.4062V9.96875C4.125 8.26012 5.51012 6.875 7.21875 6.875H13.1587L11.5204 8.9375H7.21875ZM21.3125 20.2812C21.3125 20.8508 21.7742 21.3125 22.3438 21.3125H25.0938C25.6633 21.3125 26.125 20.8508 26.125 20.2812C26.125 19.7117 25.6633 19.25 25.0938 19.25H22.3438C21.7742 19.25 21.3125 19.7117 21.3125 20.2812Z" fill="#212121"/>
</svg>
