<svg width="33" height="33" viewBox="0 0 33 33" fill="none" xmlns="http://www.w3.org/2000/svg">
<path d="M18.4372 3.45538C17.1948 2.95172 15.8052 2.95172 14.5628 3.45538L11.5508 4.67645L24.7401 9.80561L29.3798 8.01299C29.1929 7.85798 28.9807 7.72976 28.7478 7.63534L18.4372 3.45538ZM30.25 9.88787L17.531 14.802V17.9631C19.1621 16.2176 21.4849 15.1264 24.0625 15.1264C26.4639 15.1264 28.6441 16.0735 30.25 17.6144V9.88787ZM15.4685 14.802V21.6017C15.2448 22.3838 15.125 23.2099 15.125 24.0639C15.125 24.9179 15.2448 25.7438 15.4685 26.5261V29.8213C15.1609 29.7584 14.8577 29.6673 14.5628 29.5476L4.25222 25.3678C3.34415 24.9996 2.75 24.1176 2.75 23.1378V9.88809L15.4685 14.802ZM3.62 8.01314L16.4997 12.9894L21.8856 10.9085L8.76472 5.80595L4.25222 7.63534C4.01924 7.72979 3.80692 7.85807 3.62 8.01314ZM24.0625 31.6264C28.2392 31.6264 31.625 28.2404 31.625 24.0639C31.625 19.8872 28.2392 16.5014 24.0625 16.5014C19.8858 16.5014 16.5 19.8872 16.5 24.0639C16.5 28.2404 19.8858 31.6264 24.0625 31.6264ZM27.7013 20.8277C27.9698 20.5593 28.4052 20.5593 28.6737 20.8277C28.9421 21.0962 28.9421 21.5315 28.6737 21.7999L23.1737 27.2999C22.9052 27.5685 22.4698 27.5685 22.2013 27.2999L19.4513 24.5499C19.1829 24.2815 19.1829 23.8462 19.4513 23.5777C19.7198 23.3093 20.1552 23.3093 20.4237 23.5777L22.6875 25.8416L27.7013 20.8277Z" fill="#212121"/>
</svg>
