<svg width="33" height="33" viewBox="0 0 33 33" fill="none" xmlns="http://www.w3.org/2000/svg">
<path d="M24.4124 19.2503C25.4848 19.2503 26.4296 19.796 26.9842 20.625H18.5628C16.6643 20.625 15.1253 22.164 15.1253 24.0625V29.5625C15.1253 29.7843 15.1463 30.0013 15.1865 30.2115C11.1463 29.9564 8.12505 28.4933 6.20712 25.8016C5.75067 25.161 5.50537 24.394 5.50537 23.6074V22.3425C5.50537 20.6346 6.88979 19.2503 8.59757 19.2503H24.4124ZM16.5005 2.75671C20.2975 2.75671 23.3755 5.83476 23.3755 9.63171C23.3755 13.4287 20.2975 16.5067 16.5005 16.5067C12.7035 16.5067 9.62549 13.4287 9.62549 9.63171C9.62549 5.83476 12.7035 2.75671 16.5005 2.75671ZM16.5003 24.0625C16.5003 22.9235 17.4237 22 18.5628 22H29.5628C30.702 22 31.6253 22.9235 31.6253 24.0625V29.5625C31.6253 30.7016 30.702 31.625 29.5628 31.625H18.5628C17.4237 31.625 16.5003 30.7016 16.5003 29.5625V24.0625ZM30.2503 24.75C29.491 24.75 28.8753 24.1344 28.8753 23.375H27.5003C27.5003 24.8938 28.7316 26.125 30.2503 26.125V24.75ZM30.2503 27.5C28.7316 27.5 27.5003 28.7312 27.5003 30.25H28.8753C28.8753 29.4906 29.491 28.875 30.2503 28.875V27.5ZM19.2503 23.375C19.2503 24.1344 18.6347 24.75 17.8753 24.75V26.125C19.3941 26.125 20.6253 24.8938 20.6253 23.375H19.2503ZM20.6253 30.25C20.6253 28.7312 19.3941 27.5 17.8753 27.5V28.875C18.6347 28.875 19.2503 29.4906 19.2503 30.25H20.6253ZM26.469 26.8125C26.469 25.4836 25.3917 24.4063 24.0628 24.4063C22.7338 24.4063 21.6565 25.4836 21.6565 26.8125C21.6565 28.1414 22.7338 29.2188 24.0628 29.2188C25.3917 29.2188 26.469 28.1414 26.469 26.8125Z" fill="#212121"/>
</svg>
