<svg width="20" height="20" viewBox="0 0 20 20" fill="none" xmlns="http://www.w3.org/2000/svg">
<path d="M9.167 14.5836C9.167 13.5094 9.47958 12.5083 10.0188 11.6663L3.54398 11.6668C2.50896 11.6668 1.66992 12.5058 1.66992 13.5409V14.3075C1.66992 14.7842 1.81859 15.2491 2.09522 15.6373C3.38036 17.441 5.48283 18.3344 8.33366 18.3344C9.10975 18.3344 9.8305 18.2682 10.4934 18.1348C9.66716 17.1839 9.167 15.9421 9.167 14.5836ZM12.5003 5.83738C12.5003 3.5362 10.6348 1.67072 8.33366 1.67072C6.03245 1.67072 4.16696 3.5362 4.16696 5.83738C4.16696 8.13857 6.03245 10.0041 8.33366 10.0041C10.6348 10.0041 12.5003 8.13857 12.5003 5.83738ZM19.167 14.5835C19.167 12.0522 17.1149 10.0001 14.5837 10.0001C12.0523 10.0001 10.0003 12.0522 10.0003 14.5835C10.0003 17.1148 12.0523 19.1668 14.5837 19.1668C17.1149 19.1668 19.167 17.1148 19.167 14.5835ZM14.5087 11.6736L14.5837 11.6668L14.6585 11.6736C14.8286 11.7044 14.9627 11.8386 14.9936 12.0086L15.0003 12.0835L14.9995 14.1668H17.0869L17.1618 14.1736C17.3318 14.2044 17.466 14.3386 17.4968 14.5086L17.5036 14.5835L17.4968 14.6584C17.466 14.8285 17.3318 14.9626 17.1618 14.9935L17.0869 15.0001H14.9995L15.0003 17.0835L14.9936 17.1584C14.9627 17.3285 14.8286 17.4626 14.6585 17.4935L14.5837 17.5001L14.5087 17.4935C14.3387 17.4626 14.2046 17.3285 14.1737 17.1584L14.167 17.0835L14.1662 15.0001H12.0869L12.012 14.9935C11.8419 14.9626 11.7078 14.8285 11.6769 14.6584L11.6702 14.5835L11.6769 14.5086C11.7078 14.3386 11.8419 14.2044 12.012 14.1736L12.0869 14.1668H14.1662L14.167 12.0835L14.1737 12.0086C14.2046 11.8386 14.3387 11.7044 14.5087 11.6736Z" fill="#FFD700"/>
</svg>
