<svg width="25" height="24" viewBox="0 0 25 24" fill="none" xmlns="http://www.w3.org/2000/svg">
<path d="M17.2488 2C18.4915 2 19.4988 3.00736 19.4988 4.25V19.75C19.4988 20.9926 18.4915 22 17.2488 22H11.6904C12.8112 20.8321 13.5 19.2465 13.5 17.5C13.5 13.9101 10.5899 11 7 11C6.1141 11 5.26959 11.1772 4.5 11.4982V4.25C4.5 3.00736 5.50736 2 6.75 2H17.2488ZM15.2536 5.49739H8.75136C8.37167 5.49739 8.05787 5.77954 8.00821 6.14562L8.00136 6.24739V7.75097C8.00136 8.13067 8.28352 8.44446 8.64959 8.49412L8.75136 8.50097H15.2536C15.6333 8.50097 15.9471 8.21882 15.9968 7.85274L16.0036 7.75097V6.24739C16.0036 5.83317 15.6678 5.49739 15.2536 5.49739Z" fill="black"/>
<path d="M20.5 15.0019H21.25C21.6297 15.0019 21.9435 15.2841 21.9932 15.6502L22 15.7519V17.25C22 17.6297 21.7178 17.9435 21.3518 17.9932L21.25 18H20.5V15.0019Z" fill="black"/>
<path d="M20.5 11.0019H21.25C21.6297 11.0019 21.9435 11.2841 21.9932 11.6502L22 11.7519V13.25C22 13.6297 21.7178 13.9435 21.3518 13.9932L21.25 14H20.5V11.0019Z" fill="black"/>
<path d="M20.5 7.00195H21.25C21.6297 7.00195 21.9435 7.2841 21.9932 7.65018L22 7.75195V9.25001C22 9.62971 21.7178 9.9435 21.3518 9.99316L21.25 10H20.5V7.00195Z" fill="black"/>
<path d="M12.5 17.5C12.5 14.4624 10.0376 12 7 12C3.96243 12 1.5 14.4624 1.5 17.5C1.5 20.5376 3.96243 23 7 23C10.0376 23 12.5 20.5376 12.5 17.5ZM7.50065 18L7.50111 20.5035C7.50111 20.7797 7.27725 21.0035 7.00111 21.0035C6.72497 21.0035 6.50111 20.7797 6.50111 20.5035L6.50065 18H3.9956C3.71973 18 3.49609 17.7762 3.49609 17.5C3.49609 17.2239 3.71973 17 3.9956 17H6.50046L6.5 14.4993C6.5 14.2231 6.72386 13.9993 7 13.9993C7.27614 13.9993 7.5 14.2231 7.5 14.4993L7.50046 17H9.99659C10.2725 17 10.4961 17.2239 10.4961 17.5C10.4961 17.7762 10.2725 18 9.99659 18H7.50065Z" fill="black"/>
</svg>
